<?xml version="1.0" encoding="UTF-8" standalone="no"?>
<!DOCTYPE svg PUBLIC "-//W3C//DTD SVG 1.1//EN"
 "http://www.w3.org/Graphics/SVG/1.1/DTD/svg11.dtd">
<!-- Generated by graphviz version 2.40.1 (20161225.0304)
 -->
<!-- Title: Tree Pages: 1 -->
<svg width="1051pt" height="400pt"
 viewBox="0.00 0.00 1051.04 400.00" xmlns="http://www.w3.org/2000/svg" xmlns:xlink="http://www.w3.org/1999/xlink">
<g id="graph0" class="graph" transform="scale(1 1) rotate(0) translate(4 396)">
<title>Tree</title>
<polygon fill="#ffffff" stroke="transparent" points="-4,4 -4,-396 1047.0356,-396 1047.0356,4 -4,4"/>
<!-- 0 -->
<g id="node1" class="node">
<title>0</title>
<polygon fill="none" stroke="#000000" points="664.6388,-392.1003 471.8968,-392.1003 471.8968,-316.6997 664.6388,-316.6997 664.6388,-392.1003"/>
<text text-anchor="middle" x="568.2678" y="-375.4" font-family="Times,serif" font-size="14.00" fill="#000000">sl_id_nbank_other_bad &lt;= &#45;0.5</text>
<text text-anchor="middle" x="568.2678" y="-358.6" font-family="Times,serif" font-size="14.00" fill="#000000">gini = 0.18</text>
<text text-anchor="middle" x="568.2678" y="-341.8" font-family="Times,serif" font-size="14.00" fill="#000000">samples = 20000</text>
<text text-anchor="middle" x="568.2678" y="-325" font-family="Times,serif" font-size="14.00" fill="#000000">value = [18000, 2000]</text>
</g>
<!-- 1 -->
<g id="node2" class="node">
<title>1</title>
<polygon fill="none" stroke="#000000" points="557.7582,-280.9003 340.7774,-280.9003 340.7774,-205.4997 557.7582,-205.4997 557.7582,-280.9003"/>
<text text-anchor="middle" x="449.2678" y="-264.2" font-family="Times,serif" font-size="14.00" fill="#000000">sl_id_nbank_cons_bad_time &lt;= 1.5</text>
<text text-anchor="middle" x="449.2678" y="-247.4" font-family="Times,serif" font-size="14.00" fill="#000000">gini = 0.179</text>
<text text-anchor="middle" x="449.2678" y="-230.6" font-family="Times,serif" font-size="14.00" fill="#000000">samples = 19939</text>
<text text-anchor="middle" x="449.2678" y="-213.8" font-family="Times,serif" font-size="14.00" fill="#000000">value = [17963, 1976]</text>
</g>
<!-- 0&#45;&gt;1 -->
<g id="edge1" class="edge">
<title>0&#45;&gt;1</title>
<path fill="none" stroke="#000000" d="M527.9798,-316.7528C517.9964,-307.4237 507.2045,-297.3392 496.9067,-287.7164"/>
<polygon fill="#000000" stroke="#000000" points="499.2104,-285.0788 489.5143,-280.8085 494.4311,-290.1933 499.2104,-285.0788"/>
<text text-anchor="middle" x="490.3609" y="-301.5941" font-family="Times,serif" font-size="14.00" fill="#000000">True</text>
</g>
<!-- 8 -->
<g id="node9" class="node">
<title>8</title>
<polygon fill="none" stroke="#000000" points="797.8646,-280.9003 578.671,-280.9003 578.671,-205.4997 797.8646,-205.4997 797.8646,-280.9003"/>
<text text-anchor="middle" x="688.2678" y="-264.2" font-family="Times,serif" font-size="14.00" fill="#000000">sl_id_nbank_other_bad_time &lt;= 1.5</text>
<text text-anchor="middle" x="688.2678" y="-247.4" font-family="Times,serif" font-size="14.00" fill="#000000">gini = 0.477</text>
<text text-anchor="middle" x="688.2678" y="-230.6" font-family="Times,serif" font-size="14.00" fill="#000000">samples = 61</text>
<text text-anchor="middle" x="688.2678" y="-213.8" font-family="Times,serif" font-size="14.00" fill="#000000">value = [37, 24]</text>
</g>
<!-- 0&#45;&gt;8 -->
<g id="edge8" class="edge">
<title>0&#45;&gt;8</title>
<path fill="none" stroke="#000000" d="M608.8943,-316.7528C618.9617,-307.4237 629.8442,-297.3392 640.2285,-287.7164"/>
<polygon fill="#000000" stroke="#000000" points="642.7272,-290.1727 647.6831,-280.8085 637.9692,-285.0383 642.7272,-290.1727"/>
<text text-anchor="middle" x="646.7322" y="-301.5904" font-family="Times,serif" font-size="14.00" fill="#000000">False</text>
</g>
<!-- 2 -->
<g id="node3" class="node">
<title>2</title>
<polygon fill="none" stroke="#000000" points="303.0789,-169.7003 105.4567,-169.7003 105.4567,-94.2997 303.0789,-94.2997 303.0789,-169.7003"/>
<text text-anchor="middle" x="204.2678" y="-153" font-family="Times,serif" font-size="14.00" fill="#000000">sl_cell_nbank_bad_time &lt;= &#45;0.5</text>
<text text-anchor="middle" x="204.2678" y="-136.2" font-family="Times,serif" font-size="14.00" fill="#000000">gini = 0.178</text>
<text text-anchor="middle" x="204.2678" y="-119.4" font-family="Times,serif" font-size="14.00" fill="#000000">samples = 19919</text>
<text text-anchor="middle" x="204.2678" y="-102.6" font-family="Times,serif" font-size="14.00" fill="#000000">value = [17954, 1965]</text>
</g>
<!-- 1&#45;&gt;2 -->
<g id="edge2" class="edge">
<title>1&#45;&gt;2</title>
<path fill="none" stroke="#000000" d="M366.322,-205.5528C343.872,-195.3632 319.4366,-184.2725 296.5096,-173.8665"/>
<polygon fill="#000000" stroke="#000000" points="297.6807,-170.5544 287.1282,-169.6085 294.7876,-176.9286 297.6807,-170.5544"/>
</g>
<!-- 5 -->
<g id="node6" class="node">
<title>5</title>
<polygon fill="none" stroke="#000000" points="577.1331,-169.7003 321.4025,-169.7003 321.4025,-94.2997 577.1331,-94.2997 577.1331,-169.7003"/>
<text text-anchor="middle" x="449.2678" y="-153" font-family="Times,serif" font-size="14.00" fill="#000000">sl_id_nbank_cons_overdue_allnum &lt;= 0.0</text>
<text text-anchor="middle" x="449.2678" y="-136.2" font-family="Times,serif" font-size="14.00" fill="#000000">gini = 0.495</text>
<text text-anchor="middle" x="449.2678" y="-119.4" font-family="Times,serif" font-size="14.00" fill="#000000">samples = 20</text>
<text text-anchor="middle" x="449.2678" y="-102.6" font-family="Times,serif" font-size="14.00" fill="#000000">value = [9, 11]</text>
</g>
<!-- 1&#45;&gt;5 -->
<g id="edge5" class="edge">
<title>1&#45;&gt;5</title>
<path fill="none" stroke="#000000" d="M449.2678,-205.5528C449.2678,-197.22 449.2678,-188.2845 449.2678,-179.6137"/>
<polygon fill="#000000" stroke="#000000" points="452.7679,-179.6084 449.2678,-169.6085 445.7679,-179.6085 452.7679,-179.6084"/>
</g>
<!-- 3 -->
<g id="node4" class="node">
<title>3</title>
<polygon fill="none" stroke="#000000" points="140.3042,-58.6014 .2314,-58.6014 .2314,.2014 140.3042,.2014 140.3042,-58.6014"/>
<text text-anchor="middle" x="70.2678" y="-41.8" font-family="Times,serif" font-size="14.00" fill="#000000">gini = 0.177</text>
<text text-anchor="middle" x="70.2678" y="-25" font-family="Times,serif" font-size="14.00" fill="#000000">samples = 19862</text>
<text text-anchor="middle" x="70.2678" y="-8.2" font-family="Times,serif" font-size="14.00" fill="#000000">value = [17916, 1946]</text>
</g>
<!-- 2&#45;&gt;3 -->
<g id="edge3" class="edge">
<title>2&#45;&gt;3</title>
<path fill="none" stroke="#000000" d="M155.132,-94.3048C142.5098,-84.6215 128.9751,-74.2382 116.5052,-64.6717"/>
<polygon fill="#000000" stroke="#000000" points="118.5493,-61.8285 108.4847,-58.5186 114.2885,-67.3824 118.5493,-61.8285"/>
</g>
<!-- 4 -->
<g id="node5" class="node">
<title>4</title>
<polygon fill="none" stroke="#000000" points="263.8044,-58.6014 158.7312,-58.6014 158.7312,.2014 263.8044,.2014 263.8044,-58.6014"/>
<text text-anchor="middle" x="211.2678" y="-41.8" font-family="Times,serif" font-size="14.00" fill="#000000">gini = 0.444</text>
<text text-anchor="middle" x="211.2678" y="-25" font-family="Times,serif" font-size="14.00" fill="#000000">samples = 57</text>
<text text-anchor="middle" x="211.2678" y="-8.2" font-family="Times,serif" font-size="14.00" fill="#000000">value = [38, 19]</text>
</g>
<!-- 2&#45;&gt;4 -->
<g id="edge4" class="edge">
<title>2&#45;&gt;4</title>
<path fill="none" stroke="#000000" d="M206.8346,-94.3048C207.406,-85.9126 208.0133,-76.9946 208.5891,-68.5382"/>
<polygon fill="#000000" stroke="#000000" points="212.0839,-68.7333 209.2714,-58.5186 205.1,-68.2577 212.0839,-68.7333"/>
</g>
<!-- 6 -->
<g id="node7" class="node">
<title>6</title>
<polygon fill="none" stroke="#000000" points="433.3045,-58.6014 335.2311,-58.6014 335.2311,.2014 433.3045,.2014 433.3045,-58.6014"/>
<text text-anchor="middle" x="384.2678" y="-41.8" font-family="Times,serif" font-size="14.00" fill="#000000">gini = 0.488</text>
<text text-anchor="middle" x="384.2678" y="-25" font-family="Times,serif" font-size="14.00" fill="#000000">samples = 19</text>
<text text-anchor="middle" x="384.2678" y="-8.2" font-family="Times,serif" font-size="14.00" fill="#000000">value = [8, 11]</text>
</g>
<!-- 5&#45;&gt;6 -->
<g id="edge6" class="edge">
<title>5&#45;&gt;6</title>
<path fill="none" stroke="#000000" d="M425.4333,-94.3048C419.8354,-85.4515 413.8675,-76.013 408.2626,-67.1487"/>
<polygon fill="#000000" stroke="#000000" points="411.1084,-65.1003 402.8058,-58.5186 405.1919,-68.8413 411.1084,-65.1003"/>
</g>
<!-- 7 -->
<g id="node8" class="node">
<title>7</title>
<polygon fill="none" stroke="#000000" points="542.8046,-58.6014 451.731,-58.6014 451.731,.2014 542.8046,.2014 542.8046,-58.6014"/>
<text text-anchor="middle" x="497.2678" y="-41.8" font-family="Times,serif" font-size="14.00" fill="#000000">gini = 0.0</text>
<text text-anchor="middle" x="497.2678" y="-25" font-family="Times,serif" font-size="14.00" fill="#000000">samples = 1</text>
<text text-anchor="middle" x="497.2678" y="-8.2" font-family="Times,serif" font-size="14.00" fill="#000000">value = [1, 0]</text>
</g>
<!-- 5&#45;&gt;7 -->
<g id="edge7" class="edge">
<title>5&#45;&gt;7</title>
<path fill="none" stroke="#000000" d="M466.8687,-94.3048C470.9164,-85.636 475.2261,-76.406 479.2895,-67.7034"/>
<polygon fill="#000000" stroke="#000000" points="482.5187,-69.0604 483.5782,-58.5186 476.176,-66.0988 482.5187,-69.0604"/>
</g>
<!-- 9 -->
<g id="node10" class="node">
<title>9</title>
<polygon fill="none" stroke="#000000" points="781.4197,-169.7003 595.1159,-169.7003 595.1159,-94.2997 781.4197,-94.2997 781.4197,-169.7003"/>
<text text-anchor="middle" x="688.2678" y="-153" font-family="Times,serif" font-size="14.00" fill="#000000">sl_id_bank_fraud_time &lt;= 1.5</text>
<text text-anchor="middle" x="688.2678" y="-136.2" font-family="Times,serif" font-size="14.00" fill="#000000">gini = 0.5</text>
<text text-anchor="middle" x="688.2678" y="-119.4" font-family="Times,serif" font-size="14.00" fill="#000000">samples = 44</text>
<text text-anchor="middle" x="688.2678" y="-102.6" font-family="Times,serif" font-size="14.00" fill="#000000">value = [22, 22]</text>
</g>
<!-- 8&#45;&gt;9 -->
<g id="edge9" class="edge">
<title>8&#45;&gt;9</title>
<path fill="none" stroke="#000000" d="M688.2678,-205.5528C688.2678,-197.22 688.2678,-188.2845 688.2678,-179.6137"/>
<polygon fill="#000000" stroke="#000000" points="691.7679,-179.6084 688.2678,-169.6085 684.7679,-179.6085 691.7679,-179.6084"/>
</g>
<!-- 12 -->
<g id="node13" class="node">
<title>12</title>
<polygon fill="none" stroke="#000000" points="983.0677,-169.7003 799.4679,-169.7003 799.4679,-94.2997 983.0677,-94.2997 983.0677,-169.7003"/>
<text text-anchor="middle" x="891.2678" y="-153" font-family="Times,serif" font-size="14.00" fill="#000000">sl_cell_bank_overdue &lt;= &#45;0.5</text>
<text text-anchor="middle" x="891.2678" y="-136.2" font-family="Times,serif" font-size="14.00" fill="#000000">gini = 0.208</text>
<text text-anchor="middle" x="891.2678" y="-119.4" font-family="Times,serif" font-size="14.00" fill="#000000">samples = 17</text>
<text text-anchor="middle" x="891.2678" y="-102.6" font-family="Times,serif" font-size="14.00" fill="#000000">value = [15, 2]</text>
</g>
<!-- 8&#45;&gt;12 -->
<g id="edge12" class="edge">
<title>8&#45;&gt;12</title>
<path fill="none" stroke="#000000" d="M756.9943,-205.5528C775.2651,-195.5444 795.1229,-184.6666 813.8245,-174.4221"/>
<polygon fill="#000000" stroke="#000000" points="815.5232,-177.4824 822.612,-169.6085 812.1602,-171.3432 815.5232,-177.4824"/>
</g>
<!-- 10 -->
<g id="node11" class="node">
<title>10</title>
<polygon fill="none" stroke="#000000" points="693.8044,-58.6014 588.7312,-58.6014 588.7312,.2014 693.8044,.2014 693.8044,-58.6014"/>
<text text-anchor="middle" x="641.2678" y="-41.8" font-family="Times,serif" font-size="14.00" fill="#000000">gini = 0.482</text>
<text text-anchor="middle" x="641.2678" y="-25" font-family="Times,serif" font-size="14.00" fill="#000000">samples = 32</text>
<text text-anchor="middle" x="641.2678" y="-8.2" font-family="Times,serif" font-size="14.00" fill="#000000">value = [13, 19]</text>
</g>
<!-- 9&#45;&gt;10 -->
<g id="edge10" class="edge">
<title>9&#45;&gt;10</title>
<path fill="none" stroke="#000000" d="M671.0336,-94.3048C667.0702,-85.636 662.8503,-76.406 658.8715,-67.7034"/>
<polygon fill="#000000" stroke="#000000" points="662.0134,-66.1579 654.6722,-58.5186 655.6472,-69.0685 662.0134,-66.1579"/>
</g>
<!-- 11 -->
<g id="node12" class="node">
<title>11</title>
<polygon fill="none" stroke="#000000" points="803.8046,-58.6014 712.731,-58.6014 712.731,.2014 803.8046,.2014 803.8046,-58.6014"/>
<text text-anchor="middle" x="758.2678" y="-41.8" font-family="Times,serif" font-size="14.00" fill="#000000">gini = 0.375</text>
<text text-anchor="middle" x="758.2678" y="-25" font-family="Times,serif" font-size="14.00" fill="#000000">samples = 12</text>
<text text-anchor="middle" x="758.2678" y="-8.2" font-family="Times,serif" font-size="14.00" fill="#000000">value = [9, 3]</text>
</g>
<!-- 9&#45;&gt;11 -->
<g id="edge11" class="edge">
<title>9&#45;&gt;11</title>
<path fill="none" stroke="#000000" d="M713.9357,-94.3048C720.027,-85.3593 726.5252,-75.8163 732.6158,-66.8718"/>
<polygon fill="#000000" stroke="#000000" points="735.5683,-68.7543 738.3038,-58.5186 729.7823,-64.8144 735.5683,-68.7543"/>
</g>
<!-- 13 -->
<g id="node14" class="node">
<title>13</title>
<polygon fill="none" stroke="#000000" points="933.3045,-58.6014 835.2311,-58.6014 835.2311,.2014 933.3045,.2014 933.3045,-58.6014"/>
<text text-anchor="middle" x="884.2678" y="-41.8" font-family="Times,serif" font-size="14.00" fill="#000000">gini = 0.117</text>
<text text-anchor="middle" x="884.2678" y="-25" font-family="Times,serif" font-size="14.00" fill="#000000">samples = 16</text>
<text text-anchor="middle" x="884.2678" y="-8.2" font-family="Times,serif" font-size="14.00" fill="#000000">value = [15, 1]</text>
</g>
<!-- 12&#45;&gt;13 -->
<g id="edge13" class="edge">
<title>12&#45;&gt;13</title>
<path fill="none" stroke="#000000" d="M888.701,-94.3048C888.1296,-85.9126 887.5223,-76.9946 886.9465,-68.5382"/>
<polygon fill="#000000" stroke="#000000" points="890.4356,-68.2577 886.2642,-58.5186 883.4517,-68.7333 890.4356,-68.2577"/>
</g>
<!-- 14 -->
<g id="node15" class="node">
<title>14</title>
<polygon fill="none" stroke="#000000" points="1042.8046,-58.6014 951.731,-58.6014 951.731,.2014 1042.8046,.2014 1042.8046,-58.6014"/>
<text text-anchor="middle" x="997.2678" y="-41.8" font-family="Times,serif" font-size="14.00" fill="#000000">gini = 0.0</text>
<text text-anchor="middle" x="997.2678" y="-25" font-family="Times,serif" font-size="14.00" fill="#000000">samples = 1</text>
<text text-anchor="middle" x="997.2678" y="-8.2" font-family="Times,serif" font-size="14.00" fill="#000000">value = [0, 1]</text>
</g>
<!-- 12&#45;&gt;14 -->
<g id="edge14" class="edge">
<title>12&#45;&gt;14</title>
<path fill="none" stroke="#000000" d="M930.1364,-94.3048C939.8358,-84.8982 950.2165,-74.8309 959.8444,-65.4936"/>
<polygon fill="#000000" stroke="#000000" points="962.2946,-67.9931 967.0365,-58.5186 957.4212,-62.968 962.2946,-67.9931"/>
</g>
</g>
</svg>
